<svg xmlns="http://www.w3.org/2000/svg" xmlns:xlink="http://www.w3.org/1999/xlink" xmlns:s="https://www.bit-spinner.com" width="845" height="702"><style>svg {
  stroke:#000;
  fill:none;
}
text {
  fill:#000;
  stroke:none;
  font-size:10px;
  font-weight: bold;
  font-family: "Courier New", monospace;
}
line {
    stroke-linecap: round;
}
.nodelabel {
  text-anchor: middle;
}
.inputPortLabel {
  text-anchor: end;
}
.splitjoinBody {
  fill:#000;
}</style><g s:type="generic" transform="translate(133,358.5)" s:width="30" s:height="40" id="cell_four"><text x="15" y="-4" class="nodelabel cell_four" s:attribute="ref">$paramod\status\PTR_WIDTH=s32'00000000000000000000000000000100</text><rect width="30" height="120" s:generic="body" class="cell_four"/><g transform="translate(0,10)" s:x="0" s:y="10" s:pid="in0" id="port_four~clk"><text x="-3" y="-4" class="inputPortLabel cell_four">clk</text></g><g transform="translate(0,30)" s:x="0" s:y="10" s:pid="in0" id="port_four~ren"><text x="-3" y="-4" class="inputPortLabel cell_four">ren</text></g><g transform="translate(0,50)" s:x="0" s:y="10" s:pid="in0" id="port_four~rptr"><text x="-3" y="-4" class="inputPortLabel cell_four">rptr</text></g><g transform="translate(0,70)" s:x="0" s:y="10" s:pid="in0" id="port_four~rst_n"><text x="-3" y="-4" class="inputPortLabel cell_four">rst_n</text></g><g transform="translate(0,90)" s:x="0" s:y="10" s:pid="in0" id="port_four~wen"><text x="-3" y="-4" class="inputPortLabel cell_four">wen</text></g><g transform="translate(0,110)" s:x="0" s:y="10" s:pid="in0" id="port_four~wptr"><text x="-3" y="-4" class="inputPortLabel cell_four">wptr</text></g><g transform="translate(30,10)" s:x="30" s:y="10" s:pid="out0" id="port_four~empty"><text x="5" y="-4" style="fill:#000; stroke:none" class="cell_four">empty</text></g><g transform="translate(30,30)" s:x="30" s:y="10" s:pid="out0" id="port_four~full"><text x="5" y="-4" style="fill:#000; stroke:none" class="cell_four">full</text></g><g transform="translate(30,50)" s:x="30" s:y="10" s:pid="out0" id="port_four~overflow"><text x="5" y="-4" style="fill:#000; stroke:none" class="cell_four">overflow</text></g><g transform="translate(30,70)" s:x="30" s:y="10" s:pid="out0" id="port_four~threshold"><text x="5" y="-4" style="fill:#000; stroke:none" class="cell_four">threshold</text></g><g transform="translate(30,90)" s:x="30" s:y="10" s:pid="out0" id="port_four~underflow"><text x="5" y="-4" style="fill:#000; stroke:none" class="cell_four">underflow</text></g></g><g s:type="generic" transform="translate(329,441)" s:width="30" s:height="40" id="cell_one"><text x="15" y="-4" class="nodelabel cell_one" s:attribute="ref">$paramod\write_pointer\PTR_WIDTH=s32'00000000000000000000000000000100</text><rect width="30" height="80" s:generic="body" class="cell_one"/><g transform="translate(0,10)" s:x="0" s:y="10" s:pid="in0" id="port_one~clk"><text x="-3" y="-4" class="inputPortLabel cell_one">clk</text></g><g transform="translate(0,30)" s:x="0" s:y="10" s:pid="in0" id="port_one~full"><text x="-3" y="-4" class="inputPortLabel cell_one">full</text></g><g transform="translate(0,50)" s:x="0" s:y="10" s:pid="in0" id="port_one~rst_n"><text x="-3" y="-4" class="inputPortLabel cell_one">rst_n</text></g><g transform="translate(0,70)" s:x="0" s:y="10" s:pid="in0" id="port_one~wen"><text x="-3" y="-4" class="inputPortLabel cell_one">wen</text></g><g transform="translate(30,10)" s:x="30" s:y="10" s:pid="out0" id="port_one~wptr"><text x="5" y="-4" style="fill:#000; stroke:none" class="cell_one">wptr</text></g></g><g s:type="generic" transform="translate(643,318.5)" s:width="30" s:height="40" id="cell_three"><text x="15" y="-4" class="nodelabel cell_three" s:attribute="ref">$paramod$ea23bf1b0b8ee9b6c005ea94af398a9985ddefe2\memory</text><rect width="30" height="120" s:generic="body" class="cell_three"/><g transform="translate(0,10)" s:x="0" s:y="10" s:pid="in0" id="port_three~clk"><text x="-3" y="-4" class="inputPortLabel cell_three">clk</text></g><g transform="translate(0,30)" s:x="0" s:y="10" s:pid="in0" id="port_three~data_in"><text x="-3" y="-4" class="inputPortLabel cell_three">data_in</text></g><g transform="translate(0,50)" s:x="0" s:y="10" s:pid="in0" id="port_three~ren"><text x="-3" y="-4" class="inputPortLabel cell_three">ren</text></g><g transform="translate(0,70)" s:x="0" s:y="10" s:pid="in0" id="port_three~rptr"><text x="-3" y="-4" class="inputPortLabel cell_three">rptr</text></g><g transform="translate(0,90)" s:x="0" s:y="10" s:pid="in0" id="port_three~wen"><text x="-3" y="-4" class="inputPortLabel cell_three">wen</text></g><g transform="translate(0,110)" s:x="0" s:y="10" s:pid="in0" id="port_three~wptr"><text x="-3" y="-4" class="inputPortLabel cell_three">wptr</text></g><g transform="translate(30,10)" s:x="30" s:y="10" s:pid="out0" id="port_three~rdout"><text x="5" y="-4" style="fill:#000; stroke:none" class="cell_three">rdout</text></g></g><g s:type="generic" transform="translate(329,228.5)" s:width="30" s:height="40" id="cell_two"><text x="15" y="-4" class="nodelabel cell_two" s:attribute="ref">$paramod\read_pointer\PTR_WIDTH=s32'00000000000000000000000000000100</text><rect width="30" height="80" s:generic="body" class="cell_two"/><g transform="translate(0,10)" s:x="0" s:y="10" s:pid="in0" id="port_two~clk"><text x="-3" y="-4" class="inputPortLabel cell_two">clk</text></g><g transform="translate(0,30)" s:x="0" s:y="10" s:pid="in0" id="port_two~empty"><text x="-3" y="-4" class="inputPortLabel cell_two">empty</text></g><g transform="translate(0,50)" s:x="0" s:y="10" s:pid="in0" id="port_two~ren"><text x="-3" y="-4" class="inputPortLabel cell_two">ren</text></g><g transform="translate(0,70)" s:x="0" s:y="10" s:pid="in0" id="port_two~rst_n"><text x="-3" y="-4" class="inputPortLabel cell_two">rst_n</text></g><g transform="translate(30,10)" s:x="30" s:y="10" s:pid="out0" id="port_two~rptr"><text x="5" y="-4" style="fill:#000; stroke:none" class="cell_two">rptr</text></g></g><g s:type="inputExt" transform="translate(12,204)" s:width="30" s:height="20" id="cell_clk"><text x="15" y="-4" class="nodelabel cell_clk" s:attribute="ref">clk</text><s:alias val="$_inputExt_"/><path d="M0,0 L0,20 L15,20 L30,10 L15,0 Z" class="cell_clk"/><g s:x="30" s:y="10" s:pid="Y"/></g><g s:type="inputExt" transform="translate(12,374)" s:width="30" s:height="20" id="cell_rst_n"><text x="15" y="-4" class="nodelabel cell_rst_n" s:attribute="ref">rst_n</text><s:alias val="$_inputExt_"/><path d="M0,0 L0,20 L15,20 L30,10 L15,0 Z" class="cell_rst_n"/><g s:x="30" s:y="10" s:pid="Y"/></g><g s:type="inputExt" transform="translate(459,129)" s:width="30" s:height="20" id="cell_data_in"><text x="15" y="-4" class="nodelabel cell_data_in" s:attribute="ref">data_in</text><s:alias val="$_inputExt_"/><path d="M0,0 L0,20 L15,20 L30,10 L15,0 Z" class="cell_data_in"/><g s:x="30" s:y="10" s:pid="Y"/></g><g s:type="outputExt" transform="translate(779,319)" s:width="30" s:height="20" id="cell_rdout"><text x="15" y="-4" class="nodelabel cell_rdout" s:attribute="ref">rdout</text><s:alias val="$_outputExt_"/><path d="M30,0 L30,20 L15,20 L0,10 L15,0 Z" class="cell_rdout"/><g s:x="0" s:y="10" s:pid="A"/></g><g s:type="outputExt" transform="translate(779,540)" s:width="30" s:height="20" id="cell_full"><text x="15" y="-4" class="nodelabel cell_full" s:attribute="ref">full</text><s:alias val="$_outputExt_"/><path d="M30,0 L30,20 L15,20 L0,10 L15,0 Z" class="cell_full"/><g s:x="0" s:y="10" s:pid="A"/></g><g s:type="outputExt" transform="translate(779,87)" s:width="30" s:height="20" id="cell_empty"><text x="15" y="-4" class="nodelabel cell_empty" s:attribute="ref">empty</text><s:alias val="$_outputExt_"/><path d="M30,0 L30,20 L15,20 L0,10 L15,0 Z" class="cell_empty"/><g s:x="0" s:y="10" s:pid="A"/></g><g s:type="outputExt" transform="translate(779,22)" s:width="30" s:height="20" id="cell_overflow"><text x="15" y="-4" class="nodelabel cell_overflow" s:attribute="ref">overflow</text><s:alias val="$_outputExt_"/><path d="M30,0 L30,20 L15,20 L0,10 L15,0 Z" class="cell_overflow"/><g s:x="0" s:y="10" s:pid="A"/></g><g s:type="outputExt" transform="translate(779,605)" s:width="30" s:height="20" id="cell_underflow"><text x="15" y="-4" class="nodelabel cell_underflow" s:attribute="ref">underflow</text><s:alias val="$_outputExt_"/><path d="M30,0 L30,20 L15,20 L0,10 L15,0 Z" class="cell_underflow"/><g s:x="0" s:y="10" s:pid="A"/></g><g s:type="outputExt" transform="translate(779,670)" s:width="30" s:height="20" id="cell_threshold"><text x="15" y="-4" class="nodelabel cell_threshold" s:attribute="ref">threshold</text><s:alias val="$_outputExt_"/><path d="M30,0 L30,20 L15,20 L0,10 L15,0 Z" class="cell_threshold"/><g s:x="0" s:y="10" s:pid="A"/></g><g s:type="inputExt" transform="translate(12,439)" s:width="30" s:height="20" id="cell_wen"><text x="15" y="-4" class="nodelabel cell_wen" s:attribute="ref">wen</text><s:alias val="$_inputExt_"/><path d="M0,0 L0,20 L15,20 L30,10 L15,0 Z" class="cell_wen"/><g s:x="30" s:y="10" s:pid="Y"/></g><g s:type="inputExt" transform="translate(12,269)" s:width="30" s:height="20" id="cell_ren"><text x="15" y="-4" class="nodelabel cell_ren" s:attribute="ref">ren</text><s:alias val="$_inputExt_"/><path d="M0,0 L0,20 L15,20 L30,10 L15,0 Z" class="cell_ren"/><g s:x="30" s:y="10" s:pid="Y"/></g><g s:type="split" transform="translate(477,170)" s:width="5" s:height="40" id="cell_$split$,27,28,29,30,31,"><rect width="5" height="20" class="splitjoinBody" s:generic="body"/><s:alias val="$_split_"/><g s:x="0" s:y="20" s:pid="in"/><g transform="translate(4,10)" s:x="4" s:y="10" s:pid="out0"><text x="5" y="-4">0:3</text></g></g><g s:type="split" transform="translate(477,418.5)" s:width="5" s:height="40" id="cell_$split$,32,33,34,35,36,"><rect width="5" height="20" class="splitjoinBody" s:generic="body"/><s:alias val="$_split_"/><g s:x="0" s:y="20" s:pid="in"/><g transform="translate(4,10)" s:x="4" s:y="10" s:pid="out0"><text x="5" y="-4">0:3</text></g></g><line x1="42" x2="92" y1="214" y2="214" class="net_2 width_1" style="stroke-width: 1"/><line x1="92" x2="92" y1="214" y2="369" class="net_2 width_1" style="stroke-width: 1"/><circle cx="92" cy="214" r="2" style="fill:#000" class="net_2 width_1"/><line x1="92" x2="133" y1="369" y2="369" class="net_2 width_1" style="stroke-width: 1"/><line x1="42" x2="92" y1="214" y2="214" class="net_2 width_1" style="stroke-width: 1"/><line x1="92" x2="92" y1="214" y2="337.5" class="net_2 width_1" style="stroke-width: 1"/><line x1="92" x2="283" y1="337.5" y2="337.5" class="net_2 width_1" style="stroke-width: 1"/><line x1="283" x2="283" y1="337.5" y2="451.5" class="net_2 width_1" style="stroke-width: 1"/><circle cx="92" cy="337.5" r="2" style="fill:#000" class="net_2 width_1"/><line x1="283" x2="329" y1="451.5" y2="451.5" class="net_2 width_1" style="stroke-width: 1"/><line x1="42" x2="92" y1="214" y2="214" class="net_2 width_1" style="stroke-width: 1"/><line x1="92" x2="92" y1="214" y2="108" class="net_2 width_1" style="stroke-width: 1"/><line x1="92" x2="590" y1="108" y2="108" class="net_2 width_1" style="stroke-width: 1"/><line x1="590" x2="590" y1="108" y2="329" class="net_2 width_1" style="stroke-width: 1"/><line x1="590" x2="643" y1="329" y2="329" class="net_2 width_1" style="stroke-width: 1"/><line x1="42" x2="273" y1="214" y2="214" class="net_2 width_1" style="stroke-width: 1"/><line x1="273" x2="273" y1="214" y2="239" class="net_2 width_1" style="stroke-width: 1"/><line x1="273" x2="329" y1="239" y2="239" class="net_2 width_1" style="stroke-width: 1"/><line x1="42" x2="82" y1="279" y2="279" class="net_26 width_1" style="stroke-width: 1"/><line x1="82" x2="82" y1="279" y2="389" class="net_26 width_1" style="stroke-width: 1"/><circle cx="82" cy="279" r="2" style="fill:#000" class="net_26 width_1"/><line x1="82" x2="133" y1="389" y2="389" class="net_26 width_1" style="stroke-width: 1"/><line x1="42" x2="82" y1="279" y2="279" class="net_26 width_1" style="stroke-width: 1"/><line x1="82" x2="82" y1="279" y2="159" class="net_26 width_1" style="stroke-width: 1"/><line x1="82" x2="570" y1="159" y2="159" class="net_26 width_1" style="stroke-width: 1"/><line x1="570" x2="570" y1="159" y2="369" class="net_26 width_1" style="stroke-width: 1"/><line x1="570" x2="643" y1="369" y2="369" class="net_26 width_1" style="stroke-width: 1"/><line x1="42" x2="329" y1="279" y2="279" class="net_26 width_1" style="stroke-width: 1"/><line x1="360" x2="395" y1="239" y2="239" class="net_27,28,29,30,31 width_5" style="stroke-width: 2"/><line x1="395" x2="395" y1="239" y2="321.5" class="net_27,28,29,30,31 width_5" style="stroke-width: 2"/><line x1="395" x2="72" y1="321.5" y2="321.5" class="net_27,28,29,30,31 width_5" style="stroke-width: 2"/><line x1="72" x2="72" y1="321.5" y2="409" class="net_27,28,29,30,31 width_5" style="stroke-width: 2"/><circle cx="395" cy="239" r="3" style="fill:#000" class="net_27,28,29,30,31 width_5"/><line x1="72" x2="133" y1="409" y2="409" class="net_27,28,29,30,31 width_5" style="stroke-width: 2"/><line x1="360" x2="477.5" y1="239" y2="239" class="net_27,28,29,30,31 width_5" style="stroke-width: 2"/><line x1="477.5" x2="477.5" y1="239" y2="191" class="net_27,28,29,30,31 width_5" style="stroke-width: 2"/><line x1="42" x2="62" y1="384" y2="384" class="net_3 width_1" style="stroke-width: 1"/><line x1="62" x2="62" y1="384" y2="429" class="net_3 width_1" style="stroke-width: 1"/><circle cx="62" cy="384" r="2" style="fill:#000" class="net_3 width_1"/><circle cx="62" cy="429" r="2" style="fill:#000" class="net_3 width_1"/><line x1="62" x2="133" y1="429" y2="429" class="net_3 width_1" style="stroke-width: 1"/><line x1="42" x2="62" y1="384" y2="384" class="net_3 width_1" style="stroke-width: 1"/><line x1="62" x2="62" y1="384" y2="491.5" class="net_3 width_1" style="stroke-width: 1"/><line x1="62" x2="329" y1="491.5" y2="491.5" class="net_3 width_1" style="stroke-width: 1"/><line x1="42" x2="62" y1="384" y2="384" class="net_3 width_1" style="stroke-width: 1"/><line x1="62" x2="62" y1="384" y2="299" class="net_3 width_1" style="stroke-width: 1"/><line x1="62" x2="329" y1="299" y2="299" class="net_3 width_1" style="stroke-width: 1"/><line x1="42" x2="133" y1="449" y2="449" class="net_25 width_1" style="stroke-width: 1"/><line x1="42" x2="52" y1="449" y2="449" class="net_25 width_1" style="stroke-width: 1"/><line x1="52" x2="52" y1="449" y2="511.5" class="net_25 width_1" style="stroke-width: 1"/><circle cx="52" cy="449" r="2" style="fill:#000" class="net_25 width_1"/><line x1="52" x2="329" y1="511.5" y2="511.5" class="net_25 width_1" style="stroke-width: 1"/><line x1="42" x2="52" y1="449" y2="449" class="net_25 width_1" style="stroke-width: 1"/><line x1="52" x2="52" y1="449" y2="203" class="net_25 width_1" style="stroke-width: 1"/><line x1="52" x2="550" y1="203" y2="203" class="net_25 width_1" style="stroke-width: 1"/><line x1="550" x2="550" y1="203" y2="409" class="net_25 width_1" style="stroke-width: 1"/><line x1="550" x2="643" y1="409" y2="409" class="net_25 width_1" style="stroke-width: 1"/><line x1="360" x2="395" y1="451.5" y2="451.5" class="net_32,33,34,35,36 width_5" style="stroke-width: 2"/><line x1="395" x2="395" y1="451.5" y2="534" class="net_32,33,34,35,36 width_5" style="stroke-width: 2"/><line x1="395" x2="92" y1="534" y2="534" class="net_32,33,34,35,36 width_5" style="stroke-width: 2"/><line x1="92" x2="92" y1="534" y2="469" class="net_32,33,34,35,36 width_5" style="stroke-width: 2"/><circle cx="395" cy="451.5" r="3" style="fill:#000" class="net_32,33,34,35,36 width_5"/><line x1="92" x2="133" y1="469" y2="469" class="net_32,33,34,35,36 width_5" style="stroke-width: 2"/><line x1="360" x2="477.5" y1="451.5" y2="451.5" class="net_32,33,34,35,36 width_5" style="stroke-width: 2"/><line x1="477.5" x2="477.5" y1="451.5" y2="439.5" class="net_32,33,34,35,36 width_5" style="stroke-width: 2"/><line x1="164" x2="273" y1="389" y2="389" class="net_20 width_1" style="stroke-width: 1"/><line x1="273" x2="273" y1="389" y2="471.5" class="net_20 width_1" style="stroke-width: 1"/><line x1="273" x2="329" y1="471.5" y2="471.5" class="net_20 width_1" style="stroke-width: 1"/><line x1="164" x2="249" y1="389" y2="389" class="net_20 width_1" style="stroke-width: 1"/><line x1="249" x2="249" y1="389" y2="550" class="net_20 width_1" style="stroke-width: 1"/><circle cx="249" cy="389" r="2" style="fill:#000" class="net_20 width_1"/><line x1="249" x2="779" y1="550" y2="550" class="net_20 width_1" style="stroke-width: 1"/><line x1="489" x2="580" y1="139" y2="139" class="net_4,5,6,7,8,9,10,11 width_8" style="stroke-width: 2"/><line x1="580" x2="580" y1="139" y2="349" class="net_4,5,6,7,8,9,10,11 width_8" style="stroke-width: 2"/><line x1="580" x2="643" y1="349" y2="349" class="net_4,5,6,7,8,9,10,11 width_8" style="stroke-width: 2"/><line x1="482" x2="560" y1="180.5" y2="180.5" class="net_27,28,29,30 width_4" style="stroke-width: 2"/><line x1="560" x2="560" y1="180.5" y2="389" class="net_27,28,29,30 width_4" style="stroke-width: 2"/><line x1="560" x2="643" y1="389" y2="389" class="net_27,28,29,30 width_4" style="stroke-width: 2"/><line x1="482" x2="643" y1="429" y2="429" class="net_32,33,34,35 width_4" style="stroke-width: 2"/><line x1="164" x2="239" y1="369" y2="369" class="net_21 width_1" style="stroke-width: 1"/><line x1="239" x2="239" y1="369" y2="259" class="net_21 width_1" style="stroke-width: 1"/><circle cx="239" cy="259" r="2" style="fill:#000" class="net_21 width_1"/><line x1="239" x2="329" y1="259" y2="259" class="net_21 width_1" style="stroke-width: 1"/><line x1="164" x2="239" y1="369" y2="369" class="net_21 width_1" style="stroke-width: 1"/><line x1="239" x2="239" y1="369" y2="97" class="net_21 width_1" style="stroke-width: 1"/><line x1="239" x2="779" y1="97" y2="97" class="net_21 width_1" style="stroke-width: 1"/><line x1="674" x2="779" y1="329" y2="329" class="net_12,13,14,15,16,17,18,19 width_8" style="stroke-width: 2"/><line x1="164" x2="229" y1="409" y2="409" class="net_22 width_1" style="stroke-width: 1"/><line x1="229" x2="229" y1="409" y2="32" class="net_22 width_1" style="stroke-width: 1"/><line x1="229" x2="779" y1="32" y2="32" class="net_22 width_1" style="stroke-width: 1"/><line x1="164" x2="239" y1="449" y2="449" class="net_23 width_1" style="stroke-width: 1"/><line x1="239" x2="239" y1="449" y2="615" class="net_23 width_1" style="stroke-width: 1"/><line x1="239" x2="779" y1="615" y2="615" class="net_23 width_1" style="stroke-width: 1"/><line x1="164" x2="229" y1="429" y2="429" class="net_24 width_1" style="stroke-width: 1"/><line x1="229" x2="229" y1="429" y2="680" class="net_24 width_1" style="stroke-width: 1"/><line x1="229" x2="779" y1="680" y2="680" class="net_24 width_1" style="stroke-width: 1"/><rect x="421" y="234" width="16" height="9" class="net_27,28,29,30,31 width_5 busLabel_5" style="fill: white; stroke: none"/><text x="420" y="242" class="net_27,28,29,30,31 width_5 busLabel_5">/5/</text><rect x="421" y="234" width="16" height="9" class="net_27,28,29,30,31 width_5 busLabel_5" style="fill: white; stroke: none"/><text x="420" y="242" class="net_27,28,29,30,31 width_5 busLabel_5">/5/</text><rect x="421" y="446.5" width="16" height="9" class="net_32,33,34,35,36 width_5 busLabel_5" style="fill: white; stroke: none"/><text x="420" y="454.5" class="net_32,33,34,35,36 width_5 busLabel_5">/5/</text><rect x="421" y="446.5" width="16" height="9" class="net_32,33,34,35,36 width_5 busLabel_5" style="fill: white; stroke: none"/><text x="420" y="454.5" class="net_32,33,34,35,36 width_5 busLabel_5">/5/</text><rect x="537" y="134" width="16" height="9" class="net_4,5,6,7,8,9,10,11 width_8 busLabel_8" style="fill: white; stroke: none"/><text x="536" y="142" class="net_4,5,6,7,8,9,10,11 width_8 busLabel_8">/8/</text><rect x="537" y="175.5" width="16" height="9" class="net_27,28,29,30 width_4 busLabel_4" style="fill: white; stroke: none"/><text x="536" y="183.5" class="net_27,28,29,30 width_4 busLabel_4">/4/</text><rect x="537" y="424" width="16" height="9" class="net_32,33,34,35 width_4 busLabel_4" style="fill: white; stroke: none"/><text x="536" y="432" class="net_32,33,34,35 width_4 busLabel_4">/4/</text><rect x="741" y="324" width="16" height="9" class="net_12,13,14,15,16,17,18,19 width_8 busLabel_8" style="fill: white; stroke: none"/><text x="740" y="332" class="net_12,13,14,15,16,17,18,19 width_8 busLabel_8">/8/</text> <text 
        x="422.5" 
        y="351.0" 
        text-anchor="middle" 
        transform="rotate(-45, 422.5, 351.0)"
        font-size="140.4"
        opacity="0.3"
        fill="gray"
        >
            www.bit-spinner.com
        </text> <text 
        x="482.5" 
        y="411.0" 
        text-anchor="middle" 
        transform="rotate(-45, 422.5, 351.0)"
        font-size="140.4"
        opacity="0.3"
        fill="gray"
        >
            www.bit-spinner.com
        </text> <text 
            x="362.5" 
            y="291.0" 
            text-anchor="middle" 
            transform="rotate(-45, 422.5, 351.0)"
            font-size="140.4"
            opacity="0.3"
            fill="gray"
            >
                www.bit-spinner.com
            </text> <text 
        x="542.5" 
        y="471.0" 
        text-anchor="middle" 
        transform="rotate(-45, 422.5, 351.0)"
        font-size="140.4"
        opacity="0.3"
        fill="gray"
        >
            www.bit-spinner.com
        </text> <text 
            x="302.5" 
            y="231.0" 
            text-anchor="middle" 
            transform="rotate(-45, 422.5, 351.0)"
            font-size="140.4"
            opacity="0.3"
            fill="gray"
            >
                www.bit-spinner.com
            </text> <text 
        x="602.5" 
        y="531.0" 
        text-anchor="middle" 
        transform="rotate(-45, 422.5, 351.0)"
        font-size="140.4"
        opacity="0.3"
        fill="gray"
        >
            www.bit-spinner.com
        </text> <text 
            x="242.5" 
            y="171.0" 
            text-anchor="middle" 
            transform="rotate(-45, 422.5, 351.0)"
            font-size="140.4"
            opacity="0.3"
            fill="gray"
            >
                www.bit-spinner.com
            </text> <text 
        x="662.5" 
        y="591.0" 
        text-anchor="middle" 
        transform="rotate(-45, 422.5, 351.0)"
        font-size="140.4"
        opacity="0.3"
        fill="gray"
        >
            www.bit-spinner.com
        </text> <text 
            x="182.5" 
            y="111.0" 
            text-anchor="middle" 
            transform="rotate(-45, 422.5, 351.0)"
            font-size="140.4"
            opacity="0.3"
            fill="gray"
            >
                www.bit-spinner.com
            </text> <text 
        x="722.5" 
        y="651.0" 
        text-anchor="middle" 
        transform="rotate(-45, 422.5, 351.0)"
        font-size="140.4"
        opacity="0.3"
        fill="gray"
        >
            www.bit-spinner.com
        </text> <text 
            x="122.5" 
            y="51.0" 
            text-anchor="middle" 
            transform="rotate(-45, 422.5, 351.0)"
            font-size="140.4"
            opacity="0.3"
            fill="gray"
            >
                www.bit-spinner.com
            </text> <text 
        x="782.5" 
        y="711.0" 
        text-anchor="middle" 
        transform="rotate(-45, 422.5, 351.0)"
        font-size="140.4"
        opacity="0.3"
        fill="gray"
        >
            www.bit-spinner.com
        </text> <text 
            x="62.5" 
            y="-9.0" 
            text-anchor="middle" 
            transform="rotate(-45, 422.5, 351.0)"
            font-size="140.4"
            opacity="0.3"
            fill="gray"
            >
                www.bit-spinner.com
            </text> <text 
        x="842.5" 
        y="771.0" 
        text-anchor="middle" 
        transform="rotate(-45, 422.5, 351.0)"
        font-size="140.4"
        opacity="0.3"
        fill="gray"
        >
            www.bit-spinner.com
        </text> <text 
            x="2.5" 
            y="-69.0" 
            text-anchor="middle" 
            transform="rotate(-45, 422.5, 351.0)"
            font-size="140.4"
            opacity="0.3"
            fill="gray"
            >
                www.bit-spinner.com
            </text> <text 
        x="902.5" 
        y="831.0" 
        text-anchor="middle" 
        transform="rotate(-45, 422.5, 351.0)"
        font-size="140.4"
        opacity="0.3"
        fill="gray"
        >
            www.bit-spinner.com
        </text> <text 
            x="-57.5" 
            y="-129.0" 
            text-anchor="middle" 
            transform="rotate(-45, 422.5, 351.0)"
            font-size="140.4"
            opacity="0.3"
            fill="gray"
            >
                www.bit-spinner.com
            </text> <text 
        x="962.5" 
        y="891.0" 
        text-anchor="middle" 
        transform="rotate(-45, 422.5, 351.0)"
        font-size="140.4"
        opacity="0.3"
        fill="gray"
        >
            www.bit-spinner.com
        </text> <text 
            x="-117.5" 
            y="-189.0" 
            text-anchor="middle" 
            transform="rotate(-45, 422.5, 351.0)"
            font-size="140.4"
            opacity="0.3"
            fill="gray"
            >
                www.bit-spinner.com
            </text></svg>