<svg xmlns="http://www.w3.org/2000/svg" xmlns:xlink="http://www.w3.org/1999/xlink" xmlns:s="https://www.bit-spinner.com" width="1223" height="868.5"><style>svg {
  stroke:#000;
  fill:none;
}
text {
  fill:#000;
  stroke:none;
  font-size:10px;
  font-weight: bold;
  font-family: "Courier New", monospace;
}
line {
    stroke-linecap: round;
}
.nodelabel {
  text-anchor: middle;
}
.inputPortLabel {
  text-anchor: end;
}
.splitjoinBody {
  fill:#000;
}</style><g s:type="generic" transform="translate(165,538.5)" s:width="30" s:height="40" id="cell_dut1"><text x="15" y="-4" class="nodelabel cell_dut1" s:attribute="ref">$paramod\write_pointer\PTR_WIDTH=s32'00000000000000000000000000000100</text><rect width="30" height="80" s:generic="body" class="cell_dut1"/><g transform="translate(0,10)" s:x="0" s:y="10" s:pid="in0" id="port_dut1~full"><text x="-3" y="-4" class="inputPortLabel cell_dut1">full</text></g><g transform="translate(0,30)" s:x="0" s:y="10" s:pid="in0" id="port_dut1~wclk"><text x="-3" y="-4" class="inputPortLabel cell_dut1">wclk</text></g><g transform="translate(0,50)" s:x="0" s:y="10" s:pid="in0" id="port_dut1~wen"><text x="-3" y="-4" class="inputPortLabel cell_dut1">wen</text></g><g transform="translate(0,70)" s:x="0" s:y="10" s:pid="in0" id="port_dut1~wrst_n"><text x="-3" y="-4" class="inputPortLabel cell_dut1">wrst_n</text></g><g transform="translate(30,10)" s:x="30" s:y="10" s:pid="out0" id="port_dut1~wptr_bin"><text x="5" y="-4" style="fill:#000; stroke:none" class="cell_dut1">wptr_bin</text></g><g transform="translate(30,30)" s:x="30" s:y="10" s:pid="out0" id="port_dut1~wptr_gray"><text x="5" y="-4" style="fill:#000; stroke:none" class="cell_dut1">wptr_gray</text></g></g><g s:type="generic" transform="translate(165,202)" s:width="30" s:height="40" id="cell_dut2"><text x="15" y="-4" class="nodelabel cell_dut2" s:attribute="ref">$paramod\read_pointer\PTR_WIDTH=s32'00000000000000000000000000000100</text><rect width="30" height="80" s:generic="body" class="cell_dut2"/><g transform="translate(0,10)" s:x="0" s:y="10" s:pid="in0" id="port_dut2~empty"><text x="-3" y="-4" class="inputPortLabel cell_dut2">empty</text></g><g transform="translate(0,30)" s:x="0" s:y="10" s:pid="in0" id="port_dut2~rclk"><text x="-3" y="-4" class="inputPortLabel cell_dut2">rclk</text></g><g transform="translate(0,50)" s:x="0" s:y="10" s:pid="in0" id="port_dut2~ren"><text x="-3" y="-4" class="inputPortLabel cell_dut2">ren</text></g><g transform="translate(0,70)" s:x="0" s:y="10" s:pid="in0" id="port_dut2~rrst_n"><text x="-3" y="-4" class="inputPortLabel cell_dut2">rrst_n</text></g><g transform="translate(30,10)" s:x="30" s:y="10" s:pid="out0" id="port_dut2~rptr_bin"><text x="5" y="-4" style="fill:#000; stroke:none" class="cell_dut2">rptr_bin</text></g><g transform="translate(30,30)" s:x="30" s:y="10" s:pid="out0" id="port_dut2~rptr_gray"><text x="5" y="-4" style="fill:#000; stroke:none" class="cell_dut2">rptr_gray</text></g></g><g s:type="generic" transform="translate(380,283.5)" s:width="30" s:height="40" id="cell_dut3"><text x="15" y="-4" class="nodelabel cell_dut3" s:attribute="ref">$paramod\read2write\PTR_WIDTH=s32'00000000000000000000000000000100</text><rect width="30" height="60" s:generic="body" class="cell_dut3"/><g transform="translate(0,10)" s:x="0" s:y="10" s:pid="in0" id="port_dut3~rptr_gray"><text x="-3" y="-4" class="inputPortLabel cell_dut3">rptr_gray</text></g><g transform="translate(0,30)" s:x="0" s:y="10" s:pid="in0" id="port_dut3~wclk"><text x="-3" y="-4" class="inputPortLabel cell_dut3">wclk</text></g><g transform="translate(0,50)" s:x="0" s:y="10" s:pid="in0" id="port_dut3~wrst_n"><text x="-3" y="-4" class="inputPortLabel cell_dut3">wrst_n</text></g><g transform="translate(30,10)" s:x="30" s:y="10" s:pid="out0" id="port_dut3~rptr_gray_sync"><text x="5" y="-4" style="fill:#000; stroke:none" class="cell_dut3">rptr_gray_sync</text></g></g><g s:type="generic" transform="translate(380,518.5)" s:width="30" s:height="40" id="cell_dut4"><text x="15" y="-4" class="nodelabel cell_dut4" s:attribute="ref">$paramod\write2read\PTR_WIDTH=s32'00000000000000000000000000000100</text><rect width="30" height="60" s:generic="body" class="cell_dut4"/><g transform="translate(0,10)" s:x="0" s:y="10" s:pid="in0" id="port_dut4~rclk"><text x="-3" y="-4" class="inputPortLabel cell_dut4">rclk</text></g><g transform="translate(0,30)" s:x="0" s:y="10" s:pid="in0" id="port_dut4~rrst_n"><text x="-3" y="-4" class="inputPortLabel cell_dut4">rrst_n</text></g><g transform="translate(0,50)" s:x="0" s:y="10" s:pid="in0" id="port_dut4~wptr_gray"><text x="-3" y="-4" class="inputPortLabel cell_dut4">wptr_gray</text></g><g transform="translate(30,10)" s:x="30" s:y="10" s:pid="out0" id="port_dut4~wptr_gray_sync"><text x="5" y="-4" style="fill:#000; stroke:none" class="cell_dut4">wptr_gray_sync</text></g></g><g s:type="generic" transform="translate(778,401)" s:width="30" s:height="40" id="cell_dut5"><text x="15" y="-4" class="nodelabel cell_dut5" s:attribute="ref">$paramod\status\PTR_WIDTH=s32'00000000000000000000000000000100</text><rect width="30" height="240" s:generic="body" class="cell_dut5"/><g transform="translate(0,10)" s:x="0" s:y="10" s:pid="in0" id="port_dut5~rclk"><text x="-3" y="-4" class="inputPortLabel cell_dut5">rclk</text></g><g transform="translate(0,30)" s:x="0" s:y="10" s:pid="in0" id="port_dut5~ren"><text x="-3" y="-4" class="inputPortLabel cell_dut5">ren</text></g><g transform="translate(0,50)" s:x="0" s:y="10" s:pid="in0" id="port_dut5~rptr_bin"><text x="-3" y="-4" class="inputPortLabel cell_dut5">rptr_bin</text></g><g transform="translate(0,70)" s:x="0" s:y="10" s:pid="in0" id="port_dut5~rptr_gray"><text x="-3" y="-4" class="inputPortLabel cell_dut5">rptr_gray</text></g><g transform="translate(0,90)" s:x="0" s:y="10" s:pid="in0" id="port_dut5~rptr_gray_sync"><text x="-3" y="-4" class="inputPortLabel cell_dut5">rptr_gray_sync</text></g><g transform="translate(0,110)" s:x="0" s:y="10" s:pid="in0" id="port_dut5~rrst_n"><text x="-3" y="-4" class="inputPortLabel cell_dut5">rrst_n</text></g><g transform="translate(0,130)" s:x="0" s:y="10" s:pid="in0" id="port_dut5~wclk"><text x="-3" y="-4" class="inputPortLabel cell_dut5">wclk</text></g><g transform="translate(0,150)" s:x="0" s:y="10" s:pid="in0" id="port_dut5~wen"><text x="-3" y="-4" class="inputPortLabel cell_dut5">wen</text></g><g transform="translate(0,170)" s:x="0" s:y="10" s:pid="in0" id="port_dut5~wptr_bin"><text x="-3" y="-4" class="inputPortLabel cell_dut5">wptr_bin</text></g><g transform="translate(0,190)" s:x="0" s:y="10" s:pid="in0" id="port_dut5~wptr_gray"><text x="-3" y="-4" class="inputPortLabel cell_dut5">wptr_gray</text></g><g transform="translate(0,210)" s:x="0" s:y="10" s:pid="in0" id="port_dut5~wptr_gray_sync"><text x="-3" y="-4" class="inputPortLabel cell_dut5">wptr_gray_sync</text></g><g transform="translate(0,230)" s:x="0" s:y="10" s:pid="in0" id="port_dut5~wrst_n"><text x="-3" y="-4" class="inputPortLabel cell_dut5">wrst_n</text></g><g transform="translate(30,10)" s:x="30" s:y="10" s:pid="out0" id="port_dut5~empty"><text x="5" y="-4" style="fill:#000; stroke:none" class="cell_dut5">empty</text></g><g transform="translate(30,30)" s:x="30" s:y="10" s:pid="out0" id="port_dut5~full"><text x="5" y="-4" style="fill:#000; stroke:none" class="cell_dut5">full</text></g><g transform="translate(30,50)" s:x="30" s:y="10" s:pid="out0" id="port_dut5~overflow"><text x="5" y="-4" style="fill:#000; stroke:none" class="cell_dut5">overflow</text></g><g transform="translate(30,70)" s:x="30" s:y="10" s:pid="out0" id="port_dut5~underflow"><text x="5" y="-4" style="fill:#000; stroke:none" class="cell_dut5">underflow</text></g></g><g s:type="generic" transform="translate(1003,523.5)" s:width="30" s:height="40" id="cell_dut6"><text x="15" y="-4" class="nodelabel cell_dut6" s:attribute="ref">$paramod$ea23bf1b0b8ee9b6c005ea94af398a9985ddefe2\memory_array</text><rect width="30" height="180" s:generic="body" class="cell_dut6"/><g transform="translate(0,10)" s:x="0" s:y="10" s:pid="in0" id="port_dut6~data_in"><text x="-3" y="-4" class="inputPortLabel cell_dut6">data_in</text></g><g transform="translate(0,30)" s:x="0" s:y="10" s:pid="in0" id="port_dut6~empty"><text x="-3" y="-4" class="inputPortLabel cell_dut6">empty</text></g><g transform="translate(0,50)" s:x="0" s:y="10" s:pid="in0" id="port_dut6~full"><text x="-3" y="-4" class="inputPortLabel cell_dut6">full</text></g><g transform="translate(0,70)" s:x="0" s:y="10" s:pid="in0" id="port_dut6~rclk"><text x="-3" y="-4" class="inputPortLabel cell_dut6">rclk</text></g><g transform="translate(0,90)" s:x="0" s:y="10" s:pid="in0" id="port_dut6~ren"><text x="-3" y="-4" class="inputPortLabel cell_dut6">ren</text></g><g transform="translate(0,110)" s:x="0" s:y="10" s:pid="in0" id="port_dut6~rptr_bin"><text x="-3" y="-4" class="inputPortLabel cell_dut6">rptr_bin</text></g><g transform="translate(0,130)" s:x="0" s:y="10" s:pid="in0" id="port_dut6~wclk"><text x="-3" y="-4" class="inputPortLabel cell_dut6">wclk</text></g><g transform="translate(0,150)" s:x="0" s:y="10" s:pid="in0" id="port_dut6~wen"><text x="-3" y="-4" class="inputPortLabel cell_dut6">wen</text></g><g transform="translate(0,170)" s:x="0" s:y="10" s:pid="in0" id="port_dut6~wptr_bin"><text x="-3" y="-4" class="inputPortLabel cell_dut6">wptr_bin</text></g><g transform="translate(30,10)" s:x="30" s:y="10" s:pid="out0" id="port_dut6~data_out"><text x="5" y="-4" style="fill:#000; stroke:none" class="cell_dut6">data_out</text></g></g><g s:type="inputExt" transform="translate(12,411.5)" s:width="30" s:height="20" id="cell_wclk"><text x="15" y="-4" class="nodelabel cell_wclk" s:attribute="ref">wclk</text><s:alias val="$_inputExt_"/><path d="M0,0 L0,20 L15,20 L30,10 L15,0 Z" class="cell_wclk"/><g s:x="30" s:y="10" s:pid="Y"/></g><g s:type="inputExt" transform="translate(12,514)" s:width="30" s:height="20" id="cell_wrst_n"><text x="15" y="-4" class="nodelabel cell_wrst_n" s:attribute="ref">wrst_n</text><s:alias val="$_inputExt_"/><path d="M0,0 L0,20 L15,20 L30,10 L15,0 Z" class="cell_wrst_n"/><g s:x="30" s:y="10" s:pid="Y"/></g><g s:type="inputExt" transform="translate(12,106)" s:width="30" s:height="20" id="cell_rclk"><text x="15" y="-4" class="nodelabel cell_rclk" s:attribute="ref">rclk</text><s:alias val="$_inputExt_"/><path d="M0,0 L0,20 L15,20 L30,10 L15,0 Z" class="cell_rclk"/><g s:x="30" s:y="10" s:pid="Y"/></g><g s:type="inputExt" transform="translate(12,346.5)" s:width="30" s:height="20" id="cell_rrst_n"><text x="15" y="-4" class="nodelabel cell_rrst_n" s:attribute="ref">rrst_n</text><s:alias val="$_inputExt_"/><path d="M0,0 L0,20 L15,20 L30,10 L15,0 Z" class="cell_rrst_n"/><g s:x="30" s:y="10" s:pid="Y"/></g><g s:type="inputExt" transform="translate(12,579)" s:width="30" s:height="20" id="cell_wen"><text x="15" y="-4" class="nodelabel cell_wen" s:attribute="ref">wen</text><s:alias val="$_inputExt_"/><path d="M0,0 L0,20 L15,20 L30,10 L15,0 Z" class="cell_wen"/><g s:x="30" s:y="10" s:pid="Y"/></g><g s:type="inputExt" transform="translate(12,171)" s:width="30" s:height="20" id="cell_ren"><text x="15" y="-4" class="nodelabel cell_ren" s:attribute="ref">ren</text><s:alias val="$_inputExt_"/><path d="M0,0 L0,20 L15,20 L30,10 L15,0 Z" class="cell_ren"/><g s:x="30" s:y="10" s:pid="Y"/></g><g s:type="inputExt" transform="translate(531,22)" s:width="30" s:height="20" id="cell_data_in"><text x="15" y="-4" class="nodelabel cell_data_in" s:attribute="ref">data_in</text><s:alias val="$_inputExt_"/><path d="M0,0 L0,20 L15,20 L30,10 L15,0 Z" class="cell_data_in"/><g s:x="30" s:y="10" s:pid="Y"/></g><g s:type="outputExt" transform="translate(1157,524)" s:width="30" s:height="20" id="cell_data_out"><text x="15" y="-4" class="nodelabel cell_data_out" s:attribute="ref">data_out</text><s:alias val="$_outputExt_"/><path d="M30,0 L30,20 L15,20 L0,10 L15,0 Z" class="cell_data_out"/><g s:x="0" s:y="10" s:pid="A"/></g><g s:type="outputExt" transform="translate(1157,706.5)" s:width="30" s:height="20" id="cell_full"><text x="15" y="-4" class="nodelabel cell_full" s:attribute="ref">full</text><s:alias val="$_outputExt_"/><path d="M30,0 L30,20 L15,20 L0,10 L15,0 Z" class="cell_full"/><g s:x="0" s:y="10" s:pid="A"/></g><g s:type="outputExt" transform="translate(1157,401.5)" s:width="30" s:height="20" id="cell_empty"><text x="15" y="-4" class="nodelabel cell_empty" s:attribute="ref">empty</text><s:alias val="$_outputExt_"/><path d="M30,0 L30,20 L15,20 L0,10 L15,0 Z" class="cell_empty"/><g s:x="0" s:y="10" s:pid="A"/></g><g s:type="outputExt" transform="translate(1157,771.5)" s:width="30" s:height="20" id="cell_overflow"><text x="15" y="-4" class="nodelabel cell_overflow" s:attribute="ref">overflow</text><s:alias val="$_outputExt_"/><path d="M30,0 L30,20 L15,20 L0,10 L15,0 Z" class="cell_overflow"/><g s:x="0" s:y="10" s:pid="A"/></g><g s:type="outputExt" transform="translate(1157,836.5)" s:width="30" s:height="20" id="cell_underflow"><text x="15" y="-4" class="nodelabel cell_underflow" s:attribute="ref">underflow</text><s:alias val="$_outputExt_"/><path d="M30,0 L30,20 L15,20 L0,10 L15,0 Z" class="cell_underflow"/><g s:x="0" s:y="10" s:pid="A"/></g><line x1="809" x2="894" y1="431.5" y2="431.5" class="net_24 width_1" style="stroke-width: 1"/><line x1="894" x2="894" y1="431.5" y2="105" class="net_24 width_1" style="stroke-width: 1"/><line x1="894" x2="88" y1="105" y2="105" class="net_24 width_1" style="stroke-width: 1"/><line x1="88" x2="88" y1="105" y2="549" class="net_24 width_1" style="stroke-width: 1"/><circle cx="894" cy="431.5" r="2" style="fill:#000" class="net_24 width_1"/><line x1="88" x2="165" y1="549" y2="549" class="net_24 width_1" style="stroke-width: 1"/><line x1="809" x2="894" y1="431.5" y2="431.5" class="net_24 width_1" style="stroke-width: 1"/><line x1="894" x2="894" y1="431.5" y2="574" class="net_24 width_1" style="stroke-width: 1"/><circle cx="894" cy="574" r="2" style="fill:#000" class="net_24 width_1"/><line x1="894" x2="1003" y1="574" y2="574" class="net_24 width_1" style="stroke-width: 1"/><line x1="809" x2="894" y1="431.5" y2="431.5" class="net_24 width_1" style="stroke-width: 1"/><line x1="894" x2="894" y1="431.5" y2="716.5" class="net_24 width_1" style="stroke-width: 1"/><line x1="894" x2="1157" y1="716.5" y2="716.5" class="net_24 width_1" style="stroke-width: 1"/><line x1="42" x2="68" y1="421.5" y2="421.5" class="net_2 width_1" style="stroke-width: 1"/><line x1="68" x2="68" y1="421.5" y2="569" class="net_2 width_1" style="stroke-width: 1"/><circle cx="68" cy="421.5" r="2" style="fill:#000" class="net_2 width_1"/><circle cx="68" cy="569" r="2" style="fill:#000" class="net_2 width_1"/><line x1="68" x2="165" y1="569" y2="569" class="net_2 width_1" style="stroke-width: 1"/><line x1="42" x2="68" y1="421.5" y2="421.5" class="net_2 width_1" style="stroke-width: 1"/><line x1="68" x2="68" y1="421.5" y2="314" class="net_2 width_1" style="stroke-width: 1"/><line x1="68" x2="380" y1="314" y2="314" class="net_2 width_1" style="stroke-width: 1"/><line x1="42" x2="623" y1="421.5" y2="421.5" class="net_2 width_1" style="stroke-width: 1"/><line x1="623" x2="623" y1="421.5" y2="531.5" class="net_2 width_1" style="stroke-width: 1"/><line x1="623" x2="778" y1="531.5" y2="531.5" class="net_2 width_1" style="stroke-width: 1"/><line x1="42" x2="68" y1="421.5" y2="421.5" class="net_2 width_1" style="stroke-width: 1"/><line x1="68" x2="68" y1="421.5" y2="654" class="net_2 width_1" style="stroke-width: 1"/><line x1="68" x2="1003" y1="654" y2="654" class="net_2 width_1" style="stroke-width: 1"/><line x1="42" x2="165" y1="589" y2="589" class="net_6 width_1" style="stroke-width: 1"/><line x1="42" x2="58" y1="589" y2="589" class="net_6 width_1" style="stroke-width: 1"/><line x1="58" x2="58" y1="589" y2="432.5" class="net_6 width_1" style="stroke-width: 1"/><line x1="58" x2="613" y1="432.5" y2="432.5" class="net_6 width_1" style="stroke-width: 1"/><line x1="613" x2="613" y1="432.5" y2="551.5" class="net_6 width_1" style="stroke-width: 1"/><circle cx="58" cy="589" r="2" style="fill:#000" class="net_6 width_1"/><line x1="613" x2="778" y1="551.5" y2="551.5" class="net_6 width_1" style="stroke-width: 1"/><line x1="42" x2="58" y1="589" y2="589" class="net_6 width_1" style="stroke-width: 1"/><line x1="58" x2="58" y1="589" y2="674" class="net_6 width_1" style="stroke-width: 1"/><line x1="58" x2="1003" y1="674" y2="674" class="net_6 width_1" style="stroke-width: 1"/><line x1="42" x2="78" y1="524" y2="524" class="net_3 width_1" style="stroke-width: 1"/><line x1="78" x2="78" y1="524" y2="609" class="net_3 width_1" style="stroke-width: 1"/><circle cx="78" cy="524" r="2" style="fill:#000" class="net_3 width_1"/><circle cx="78" cy="609" r="2" style="fill:#000" class="net_3 width_1"/><line x1="78" x2="165" y1="609" y2="609" class="net_3 width_1" style="stroke-width: 1"/><line x1="42" x2="78" y1="524" y2="524" class="net_3 width_1" style="stroke-width: 1"/><line x1="78" x2="78" y1="524" y2="334" class="net_3 width_1" style="stroke-width: 1"/><line x1="78" x2="380" y1="334" y2="334" class="net_3 width_1" style="stroke-width: 1"/><line x1="42" x2="78" y1="524" y2="524" class="net_3 width_1" style="stroke-width: 1"/><line x1="78" x2="78" y1="524" y2="631.5" class="net_3 width_1" style="stroke-width: 1"/><line x1="78" x2="778" y1="631.5" y2="631.5" class="net_3 width_1" style="stroke-width: 1"/><line x1="809" x2="924" y1="411.5" y2="411.5" class="net_25 width_1" style="stroke-width: 1"/><line x1="924" x2="924" y1="411.5" y2="94" class="net_25 width_1" style="stroke-width: 1"/><line x1="924" x2="118" y1="94" y2="94" class="net_25 width_1" style="stroke-width: 1"/><line x1="118" x2="118" y1="94" y2="212.5" class="net_25 width_1" style="stroke-width: 1"/><circle cx="924" cy="411.5" r="2" style="fill:#000" class="net_25 width_1"/><line x1="118" x2="165" y1="212.5" y2="212.5" class="net_25 width_1" style="stroke-width: 1"/><line x1="809" x2="924" y1="411.5" y2="411.5" class="net_25 width_1" style="stroke-width: 1"/><line x1="924" x2="924" y1="411.5" y2="554" class="net_25 width_1" style="stroke-width: 1"/><line x1="924" x2="1003" y1="554" y2="554" class="net_25 width_1" style="stroke-width: 1"/><line x1="809" x2="1157" y1="411.5" y2="411.5" class="net_25 width_1" style="stroke-width: 1"/><line x1="42" x2="98" y1="116" y2="116" class="net_4 width_1" style="stroke-width: 1"/><line x1="98" x2="98" y1="116" y2="232.5" class="net_4 width_1" style="stroke-width: 1"/><circle cx="98" cy="116" r="2" style="fill:#000" class="net_4 width_1"/><circle cx="98" cy="232.5" r="2" style="fill:#000" class="net_4 width_1"/><line x1="98" x2="165" y1="232.5" y2="232.5" class="net_4 width_1" style="stroke-width: 1"/><line x1="42" x2="98" y1="116" y2="116" class="net_4 width_1" style="stroke-width: 1"/><line x1="98" x2="98" y1="116" y2="506.5" class="net_4 width_1" style="stroke-width: 1"/><line x1="98" x2="310" y1="506.5" y2="506.5" class="net_4 width_1" style="stroke-width: 1"/><line x1="310" x2="310" y1="506.5" y2="529" class="net_4 width_1" style="stroke-width: 1"/><line x1="310" x2="380" y1="529" y2="529" class="net_4 width_1" style="stroke-width: 1"/><line x1="42" x2="683" y1="116" y2="116" class="net_4 width_1" style="stroke-width: 1"/><line x1="683" x2="683" y1="116" y2="411.5" class="net_4 width_1" style="stroke-width: 1"/><line x1="683" x2="778" y1="411.5" y2="411.5" class="net_4 width_1" style="stroke-width: 1"/><line x1="42" x2="98" y1="116" y2="116" class="net_4 width_1" style="stroke-width: 1"/><line x1="98" x2="98" y1="116" y2="52" class="net_4 width_1" style="stroke-width: 1"/><line x1="98" x2="934" y1="52" y2="52" class="net_4 width_1" style="stroke-width: 1"/><line x1="934" x2="934" y1="52" y2="594" class="net_4 width_1" style="stroke-width: 1"/><line x1="934" x2="1003" y1="594" y2="594" class="net_4 width_1" style="stroke-width: 1"/><line x1="42" x2="108" y1="181" y2="181" class="net_7 width_1" style="stroke-width: 1"/><line x1="108" x2="108" y1="181" y2="252.5" class="net_7 width_1" style="stroke-width: 1"/><circle cx="108" cy="181" r="2" style="fill:#000" class="net_7 width_1"/><line x1="108" x2="165" y1="252.5" y2="252.5" class="net_7 width_1" style="stroke-width: 1"/><line x1="42" x2="673" y1="181" y2="181" class="net_7 width_1" style="stroke-width: 1"/><line x1="673" x2="673" y1="181" y2="431.5" class="net_7 width_1" style="stroke-width: 1"/><line x1="673" x2="778" y1="431.5" y2="431.5" class="net_7 width_1" style="stroke-width: 1"/><line x1="42" x2="108" y1="181" y2="181" class="net_7 width_1" style="stroke-width: 1"/><line x1="108" x2="108" y1="181" y2="63" class="net_7 width_1" style="stroke-width: 1"/><line x1="108" x2="914" y1="63" y2="63" class="net_7 width_1" style="stroke-width: 1"/><line x1="914" x2="914" y1="63" y2="614" class="net_7 width_1" style="stroke-width: 1"/><line x1="914" x2="1003" y1="614" y2="614" class="net_7 width_1" style="stroke-width: 1"/><line x1="42" x2="108" y1="356.5" y2="356.5" class="net_5 width_1" style="stroke-width: 1"/><line x1="108" x2="108" y1="356.5" y2="272.5" class="net_5 width_1" style="stroke-width: 1"/><circle cx="108" cy="356.5" r="2" style="fill:#000" class="net_5 width_1"/><line x1="108" x2="165" y1="272.5" y2="272.5" class="net_5 width_1" style="stroke-width: 1"/><line x1="42" x2="108" y1="356.5" y2="356.5" class="net_5 width_1" style="stroke-width: 1"/><line x1="108" x2="108" y1="356.5" y2="517.5" class="net_5 width_1" style="stroke-width: 1"/><line x1="108" x2="300" y1="517.5" y2="517.5" class="net_5 width_1" style="stroke-width: 1"/><line x1="300" x2="300" y1="517.5" y2="549" class="net_5 width_1" style="stroke-width: 1"/><line x1="300" x2="380" y1="549" y2="549" class="net_5 width_1" style="stroke-width: 1"/><line x1="42" x2="633" y1="356.5" y2="356.5" class="net_5 width_1" style="stroke-width: 1"/><line x1="633" x2="633" y1="356.5" y2="511.5" class="net_5 width_1" style="stroke-width: 1"/><line x1="633" x2="778" y1="511.5" y2="511.5" class="net_5 width_1" style="stroke-width: 1"/><line x1="196" x2="261" y1="232.5" y2="232.5" class="net_43,44,45,46,47 width_5" style="stroke-width: 2"/><line x1="261" x2="261" y1="232.5" y2="294" class="net_43,44,45,46,47 width_5" style="stroke-width: 2"/><circle cx="261" cy="232.5" r="3" style="fill:#000" class="net_43,44,45,46,47 width_5"/><line x1="261" x2="380" y1="294" y2="294" class="net_43,44,45,46,47 width_5" style="stroke-width: 2"/><line x1="196" x2="653" y1="232.5" y2="232.5" class="net_43,44,45,46,47 width_5" style="stroke-width: 2"/><line x1="653" x2="653" y1="232.5" y2="471.5" class="net_43,44,45,46,47 width_5" style="stroke-width: 2"/><line x1="653" x2="778" y1="471.5" y2="471.5" class="net_43,44,45,46,47 width_5" style="stroke-width: 2"/><line x1="196" x2="380" y1="569" y2="569" class="net_33,34,35,36,37 width_5" style="stroke-width: 2"/><line x1="196" x2="271" y1="569" y2="569" class="net_33,34,35,36,37 width_5" style="stroke-width: 2"/><line x1="271" x2="271" y1="569" y2="467.5" class="net_33,34,35,36,37 width_5" style="stroke-width: 2"/><line x1="271" x2="593" y1="467.5" y2="467.5" class="net_33,34,35,36,37 width_5" style="stroke-width: 2"/><line x1="593" x2="593" y1="467.5" y2="591.5" class="net_33,34,35,36,37 width_5" style="stroke-width: 2"/><circle cx="271" cy="569" r="3" style="fill:#000" class="net_33,34,35,36,37 width_5"/><line x1="593" x2="778" y1="591.5" y2="591.5" class="net_33,34,35,36,37 width_5" style="stroke-width: 2"/><line x1="196" x2="663" y1="212.5" y2="212.5" class="net_38,39,40,41,42 width_5" style="stroke-width: 2"/><line x1="663" x2="663" y1="212.5" y2="451.5" class="net_38,39,40,41,42 width_5" style="stroke-width: 2"/><line x1="663" x2="778" y1="451.5" y2="451.5" class="net_38,39,40,41,42 width_5" style="stroke-width: 2"/><line x1="196" x2="261" y1="212.5" y2="212.5" class="net_38,39,40,41,42 width_5" style="stroke-width: 2"/><line x1="261" x2="261" y1="212.5" y2="78" class="net_38,39,40,41,42 width_5" style="stroke-width: 2"/><line x1="261" x2="904" y1="78" y2="78" class="net_38,39,40,41,42 width_5" style="stroke-width: 2"/><line x1="904" x2="904" y1="78" y2="634" class="net_38,39,40,41,42 width_5" style="stroke-width: 2"/><circle cx="261" cy="212.5" r="3" style="fill:#000" class="net_38,39,40,41,42 width_5"/><line x1="904" x2="1003" y1="634" y2="634" class="net_38,39,40,41,42 width_5" style="stroke-width: 2"/><line x1="411" x2="643" y1="294" y2="294" class="net_48,49,50,51,52 width_5" style="stroke-width: 2"/><line x1="643" x2="643" y1="294" y2="491.5" class="net_48,49,50,51,52 width_5" style="stroke-width: 2"/><line x1="643" x2="778" y1="491.5" y2="491.5" class="net_48,49,50,51,52 width_5" style="stroke-width: 2"/><line x1="196" x2="261" y1="549" y2="549" class="net_28,29,30,31,32 width_5" style="stroke-width: 2"/><line x1="261" x2="261" y1="549" y2="447.5" class="net_28,29,30,31,32 width_5" style="stroke-width: 2"/><line x1="261" x2="603" y1="447.5" y2="447.5" class="net_28,29,30,31,32 width_5" style="stroke-width: 2"/><line x1="603" x2="603" y1="447.5" y2="571.5" class="net_28,29,30,31,32 width_5" style="stroke-width: 2"/><circle cx="261" cy="549" r="3" style="fill:#000" class="net_28,29,30,31,32 width_5"/><line x1="603" x2="778" y1="571.5" y2="571.5" class="net_28,29,30,31,32 width_5" style="stroke-width: 2"/><line x1="196" x2="261" y1="549" y2="549" class="net_28,29,30,31,32 width_5" style="stroke-width: 2"/><line x1="261" x2="261" y1="549" y2="694" class="net_28,29,30,31,32 width_5" style="stroke-width: 2"/><line x1="261" x2="1003" y1="694" y2="694" class="net_28,29,30,31,32 width_5" style="stroke-width: 2"/><line x1="411" x2="583" y1="529" y2="529" class="net_53,54,55,56,57 width_5" style="stroke-width: 2"/><line x1="583" x2="583" y1="529" y2="611.5" class="net_53,54,55,56,57 width_5" style="stroke-width: 2"/><line x1="583" x2="778" y1="611.5" y2="611.5" class="net_53,54,55,56,57 width_5" style="stroke-width: 2"/><line x1="561" x2="944" y1="32" y2="32" class="net_8,9,10,11,12,13,14,15 width_8" style="stroke-width: 2"/><line x1="944" x2="944" y1="32" y2="534" class="net_8,9,10,11,12,13,14,15 width_8" style="stroke-width: 2"/><line x1="944" x2="1003" y1="534" y2="534" class="net_8,9,10,11,12,13,14,15 width_8" style="stroke-width: 2"/><line x1="1034" x2="1157" y1="534" y2="534" class="net_16,17,18,19,20,21,22,23 width_8" style="stroke-width: 2"/><line x1="809" x2="884" y1="451.5" y2="451.5" class="net_26 width_1" style="stroke-width: 1"/><line x1="884" x2="884" y1="451.5" y2="781.5" class="net_26 width_1" style="stroke-width: 1"/><line x1="884" x2="1157" y1="781.5" y2="781.5" class="net_26 width_1" style="stroke-width: 1"/><line x1="809" x2="874" y1="471.5" y2="471.5" class="net_27 width_1" style="stroke-width: 1"/><line x1="874" x2="874" y1="471.5" y2="846.5" class="net_27 width_1" style="stroke-width: 1"/><line x1="874" x2="1157" y1="846.5" y2="846.5" class="net_27 width_1" style="stroke-width: 1"/><rect x="409.5" y="227.5" width="16" height="9" class="net_43,44,45,46,47 width_5 busLabel_5" style="fill: white; stroke: none"/><text x="408.5" y="235.5" class="net_43,44,45,46,47 width_5 busLabel_5">/5/</text><rect x="409.5" y="227.5" width="16" height="9" class="net_43,44,45,46,47 width_5 busLabel_5" style="fill: white; stroke: none"/><text x="408.5" y="235.5" class="net_43,44,45,46,47 width_5 busLabel_5">/5/</text><rect x="409.5" y="462.5" width="16" height="9" class="net_33,34,35,36,37 width_5 busLabel_5" style="fill: white; stroke: none"/><text x="408.5" y="470.5" class="net_33,34,35,36,37 width_5 busLabel_5">/5/</text><rect x="409.5" y="462.5" width="16" height="9" class="net_33,34,35,36,37 width_5 busLabel_5" style="fill: white; stroke: none"/><text x="408.5" y="470.5" class="net_33,34,35,36,37 width_5 busLabel_5">/5/</text><rect x="409.5" y="73" width="16" height="9" class="net_38,39,40,41,42 width_5 busLabel_5" style="fill: white; stroke: none"/><text x="408.5" y="81" class="net_38,39,40,41,42 width_5 busLabel_5">/5/</text><rect x="409.5" y="73" width="16" height="9" class="net_38,39,40,41,42 width_5 busLabel_5" style="fill: white; stroke: none"/><text x="408.5" y="81" class="net_38,39,40,41,42 width_5 busLabel_5">/5/</text><rect x="551" y="289" width="16" height="9" class="net_48,49,50,51,52 width_5 busLabel_5" style="fill: white; stroke: none"/><text x="550" y="297" class="net_48,49,50,51,52 width_5 busLabel_5">/5/</text><rect x="409.5" y="689" width="16" height="9" class="net_28,29,30,31,32 width_5 busLabel_5" style="fill: white; stroke: none"/><text x="408.5" y="697" class="net_28,29,30,31,32 width_5 busLabel_5">/5/</text><rect x="409.5" y="689" width="16" height="9" class="net_28,29,30,31,32 width_5 busLabel_5" style="fill: white; stroke: none"/><text x="408.5" y="697" class="net_28,29,30,31,32 width_5 busLabel_5">/5/</text><rect x="551" y="524" width="16" height="9" class="net_53,54,55,56,57 width_5 busLabel_5" style="fill: white; stroke: none"/><text x="550" y="532" class="net_53,54,55,56,57 width_5 busLabel_5">/5/</text><rect x="777.5" y="27" width="16" height="9" class="net_8,9,10,11,12,13,14,15 width_8 busLabel_8" style="fill: white; stroke: none"/><text x="776.5" y="35" class="net_8,9,10,11,12,13,14,15 width_8 busLabel_8">/8/</text><rect x="1119" y="529" width="16" height="9" class="net_16,17,18,19,20,21,22,23 width_8 busLabel_8" style="fill: white; stroke: none"/><text x="1118" y="537" class="net_16,17,18,19,20,21,22,23 width_8 busLabel_8">/8/</text> <text 
        x="611.5" 
        y="434.25" 
        text-anchor="middle" 
        transform="rotate(-45, 611.5, 434.25)"
        font-size="173.7"
        opacity="0.3"
        fill="gray"
        >
            www.bit-spinner.com
        </text> <text 
        x="671.5" 
        y="494.25" 
        text-anchor="middle" 
        transform="rotate(-45, 611.5, 434.25)"
        font-size="173.7"
        opacity="0.3"
        fill="gray"
        >
            www.bit-spinner.com
        </text> <text 
            x="551.5" 
            y="374.25" 
            text-anchor="middle" 
            transform="rotate(-45, 611.5, 434.25)"
            font-size="173.7"
            opacity="0.3"
            fill="gray"
            >
                www.bit-spinner.com
            </text> <text 
        x="731.5" 
        y="554.25" 
        text-anchor="middle" 
        transform="rotate(-45, 611.5, 434.25)"
        font-size="173.7"
        opacity="0.3"
        fill="gray"
        >
            www.bit-spinner.com
        </text> <text 
            x="491.5" 
            y="314.25" 
            text-anchor="middle" 
            transform="rotate(-45, 611.5, 434.25)"
            font-size="173.7"
            opacity="0.3"
            fill="gray"
            >
                www.bit-spinner.com
            </text> <text 
        x="791.5" 
        y="614.25" 
        text-anchor="middle" 
        transform="rotate(-45, 611.5, 434.25)"
        font-size="173.7"
        opacity="0.3"
        fill="gray"
        >
            www.bit-spinner.com
        </text> <text 
            x="431.5" 
            y="254.25" 
            text-anchor="middle" 
            transform="rotate(-45, 611.5, 434.25)"
            font-size="173.7"
            opacity="0.3"
            fill="gray"
            >
                www.bit-spinner.com
            </text> <text 
        x="851.5" 
        y="674.25" 
        text-anchor="middle" 
        transform="rotate(-45, 611.5, 434.25)"
        font-size="173.7"
        opacity="0.3"
        fill="gray"
        >
            www.bit-spinner.com
        </text> <text 
            x="371.5" 
            y="194.25" 
            text-anchor="middle" 
            transform="rotate(-45, 611.5, 434.25)"
            font-size="173.7"
            opacity="0.3"
            fill="gray"
            >
                www.bit-spinner.com
            </text> <text 
        x="911.5" 
        y="734.25" 
        text-anchor="middle" 
        transform="rotate(-45, 611.5, 434.25)"
        font-size="173.7"
        opacity="0.3"
        fill="gray"
        >
            www.bit-spinner.com
        </text> <text 
            x="311.5" 
            y="134.25" 
            text-anchor="middle" 
            transform="rotate(-45, 611.5, 434.25)"
            font-size="173.7"
            opacity="0.3"
            fill="gray"
            >
                www.bit-spinner.com
            </text> <text 
        x="971.5" 
        y="794.25" 
        text-anchor="middle" 
        transform="rotate(-45, 611.5, 434.25)"
        font-size="173.7"
        opacity="0.3"
        fill="gray"
        >
            www.bit-spinner.com
        </text> <text 
            x="251.5" 
            y="74.25" 
            text-anchor="middle" 
            transform="rotate(-45, 611.5, 434.25)"
            font-size="173.7"
            opacity="0.3"
            fill="gray"
            >
                www.bit-spinner.com
            </text> <text 
        x="1031.5" 
        y="854.25" 
        text-anchor="middle" 
        transform="rotate(-45, 611.5, 434.25)"
        font-size="173.7"
        opacity="0.3"
        fill="gray"
        >
            www.bit-spinner.com
        </text> <text 
            x="191.5" 
            y="14.25" 
            text-anchor="middle" 
            transform="rotate(-45, 611.5, 434.25)"
            font-size="173.7"
            opacity="0.3"
            fill="gray"
            >
                www.bit-spinner.com
            </text> <text 
        x="1091.5" 
        y="914.25" 
        text-anchor="middle" 
        transform="rotate(-45, 611.5, 434.25)"
        font-size="173.7"
        opacity="0.3"
        fill="gray"
        >
            www.bit-spinner.com
        </text> <text 
            x="131.5" 
            y="-45.75" 
            text-anchor="middle" 
            transform="rotate(-45, 611.5, 434.25)"
            font-size="173.7"
            opacity="0.3"
            fill="gray"
            >
                www.bit-spinner.com
            </text> <text 
        x="1151.5" 
        y="974.25" 
        text-anchor="middle" 
        transform="rotate(-45, 611.5, 434.25)"
        font-size="173.7"
        opacity="0.3"
        fill="gray"
        >
            www.bit-spinner.com
        </text> <text 
            x="71.5" 
            y="-105.75" 
            text-anchor="middle" 
            transform="rotate(-45, 611.5, 434.25)"
            font-size="173.7"
            opacity="0.3"
            fill="gray"
            >
                www.bit-spinner.com
            </text> <text 
        x="1211.5" 
        y="1034.25" 
        text-anchor="middle" 
        transform="rotate(-45, 611.5, 434.25)"
        font-size="173.7"
        opacity="0.3"
        fill="gray"
        >
            www.bit-spinner.com
        </text> <text 
            x="11.5" 
            y="-165.75" 
            text-anchor="middle" 
            transform="rotate(-45, 611.5, 434.25)"
            font-size="173.7"
            opacity="0.3"
            fill="gray"
            >
                www.bit-spinner.com
            </text> <text 
        x="1271.5" 
        y="1094.25" 
        text-anchor="middle" 
        transform="rotate(-45, 611.5, 434.25)"
        font-size="173.7"
        opacity="0.3"
        fill="gray"
        >
            www.bit-spinner.com
        </text> <text 
            x="-48.5" 
            y="-225.75" 
            text-anchor="middle" 
            transform="rotate(-45, 611.5, 434.25)"
            font-size="173.7"
            opacity="0.3"
            fill="gray"
            >
                www.bit-spinner.com
            </text> <text 
        x="1331.5" 
        y="1154.25" 
        text-anchor="middle" 
        transform="rotate(-45, 611.5, 434.25)"
        font-size="173.7"
        opacity="0.3"
        fill="gray"
        >
            www.bit-spinner.com
        </text> <text 
            x="-108.5" 
            y="-285.75" 
            text-anchor="middle" 
            transform="rotate(-45, 611.5, 434.25)"
            font-size="173.7"
            opacity="0.3"
            fill="gray"
            >
                www.bit-spinner.com
            </text></svg>